<svg width="900" height="386" viewBox="0 0 900 386" fill="none" xmlns="http://www.w3.org/2000/svg">
<rect width="900" height="386" rx="10" fill="#1A191E"/>
<circle cx="32.4565" cy="33" r="8" fill="#FF5F56"/>
<circle cx="58" cy="33" r="8" fill="#FFBD2E"/>
<circle cx="84" cy="33" r="8" fill="#27C93F"/>
<path d="M36.0623 83.0154V97.8338H39.4592V100H29.1823V97.8338H33.33V85.8462L29.5885 88.1477L28.4069 86.2154L33.6254 83.0154H36.0623ZM33.1085 122.671C34.2326 122.671 35.2008 122.884 36.0131 123.311C36.8254 123.729 37.4449 124.304 37.8715 125.034C38.2982 125.756 38.5115 126.568 38.5115 127.471C38.5115 128.464 38.2777 129.432 37.81 130.375C37.3505 131.319 36.6039 132.361 35.57 133.502C34.5362 134.642 33.0756 136.07 31.1885 137.785H38.9054L38.5854 140H28.0254V137.908C30.1587 135.856 31.7505 134.252 32.8008 133.095C33.851 131.938 34.5895 130.954 35.0162 130.142C35.4428 129.321 35.6562 128.488 35.6562 127.643C35.6562 126.782 35.4141 126.109 34.93 125.625C34.4459 125.132 33.7731 124.886 32.9115 124.886C32.1649 124.886 31.5331 125.026 31.0162 125.305C30.4992 125.575 29.9864 126.027 29.4777 126.658L27.6808 125.292C28.3618 124.423 29.1372 123.77 30.0069 123.335C30.8767 122.892 31.9105 122.671 33.1085 122.671ZM33.0592 162.671C34.1505 162.671 35.1064 162.864 35.9269 163.249C36.7474 163.635 37.3792 164.156 37.8223 164.812C38.2654 165.461 38.4869 166.178 38.4869 166.966C38.4869 167.647 38.3392 168.263 38.0439 168.812C37.7567 169.362 37.3587 169.822 36.85 170.191C36.3413 170.56 35.7628 170.818 35.1146 170.966C35.8531 171.04 36.5136 171.241 37.0962 171.569C37.6869 171.897 38.1546 172.365 38.4992 172.972C38.8521 173.571 39.0285 174.297 39.0285 175.151C39.0285 176.119 38.7741 176.997 38.2654 177.785C37.7567 178.572 37.0346 179.196 36.0992 179.655C35.1639 180.107 34.089 180.332 32.8746 180.332C31.7751 180.332 30.7454 180.131 29.7854 179.729C28.8336 179.327 28.0295 178.736 27.3731 177.957L29.0592 176.48C29.5351 177.03 30.0931 177.444 30.7331 177.723C31.3731 178.002 32.0459 178.142 32.7515 178.142C33.81 178.142 34.6428 177.867 35.25 177.317C35.8654 176.767 36.1731 176.012 36.1731 175.052C36.1731 174.002 35.8859 173.247 35.3115 172.788C34.7372 172.32 33.9331 172.086 32.8992 172.086H31.4346L31.7546 170.055H32.7885C33.3382 170.055 33.8387 169.957 34.29 169.76C34.7413 169.555 35.0982 169.251 35.3608 168.849C35.6315 168.447 35.7669 167.955 35.7669 167.372C35.7669 166.839 35.6398 166.379 35.3854 165.994C35.131 165.6 34.7823 165.305 34.3392 165.108C33.8962 164.903 33.3956 164.8 32.8377 164.8C32.1485 164.8 31.529 164.927 30.9792 165.182C30.4295 165.428 29.8756 165.809 29.3177 166.326L27.8531 164.763C29.3218 163.368 31.0572 162.671 33.0592 162.671ZM37.6377 213.945H39.6562V216.086H37.6377V220H34.9915L34.9792 216.086H27.9269V214.166L32.8131 202.671L35.1392 203.594L30.8069 213.945H34.9915L35.3239 209.403H37.6377V213.945ZM38.6592 243.015L38.3023 245.083H31.7792V249.809C32.2387 249.571 32.6941 249.403 33.1454 249.305C33.5967 249.198 34.0685 249.145 34.5608 249.145C35.4715 249.145 36.2798 249.362 36.9854 249.797C37.6992 250.224 38.2531 250.843 38.6469 251.655C39.049 252.468 39.25 253.432 39.25 254.548C39.25 255.68 38.9956 256.685 38.4869 257.563C37.9864 258.433 37.2726 259.114 36.3454 259.606C35.4264 260.09 34.3639 260.332 33.1577 260.332C31.0818 260.332 29.3464 259.59 27.9515 258.105L29.6008 256.554C30.5526 257.612 31.7013 258.142 33.0469 258.142C34.089 258.142 34.9054 257.826 35.4962 257.194C36.0869 256.562 36.3823 255.676 36.3823 254.535C36.3823 253.354 36.1321 252.501 35.6315 251.975C35.1392 251.442 34.4664 251.175 33.6131 251.175C33.1946 251.175 32.8008 251.221 32.4315 251.311C32.0623 251.401 31.6439 251.545 31.1762 251.742H29.1454V243.015H38.6592ZM34.8069 288.812C35.7013 288.812 36.5095 289.022 37.2315 289.44C37.9618 289.85 38.5403 290.466 38.9669 291.286C39.3936 292.107 39.6069 293.099 39.6069 294.265C39.6069 295.454 39.3649 296.509 38.8808 297.428C38.3967 298.347 37.728 299.061 36.8746 299.569C36.0295 300.078 35.0695 300.332 33.9946 300.332C31.9598 300.332 30.4664 299.598 29.5146 298.129C28.5628 296.661 28.0869 294.65 28.0869 292.098C28.0869 290.211 28.3536 288.558 28.8869 287.138C29.4285 285.719 30.2039 284.619 31.2131 283.84C32.2223 283.061 33.4203 282.671 34.8069 282.671C36.1033 282.671 37.2685 283.015 38.3023 283.705L37.2315 285.477C36.4931 285.001 35.689 284.763 34.8192 284.763C34.048 284.763 33.3751 285.005 32.8008 285.489C32.2346 285.973 31.7874 286.671 31.4592 287.582C31.1392 288.492 30.9587 289.567 30.9177 290.806C31.9269 289.477 33.2233 288.812 34.8069 288.812ZM34.0069 298.24C34.9259 298.24 35.6233 297.895 36.0992 297.206C36.5751 296.517 36.8131 295.577 36.8131 294.388C36.8131 293.141 36.5874 292.246 36.1362 291.705C35.6931 291.155 35.0572 290.88 34.2285 290.88C33.5721 290.88 32.9608 291.056 32.3946 291.409C31.8285 291.762 31.3403 292.246 30.93 292.862C30.9546 294.109 31.0736 295.126 31.2869 295.914C31.5003 296.693 31.8285 297.276 32.2715 297.662C32.7146 298.047 33.2931 298.24 34.0069 298.24ZM39.1023 324.997L32.3946 340.295L29.7977 339.495L36.3085 325.182H28.53V323.015H39.1023V324.997Z" fill="#7C869F"/>
<path d="M75.3635 91.1015L84.8896 85.2062L86.1573 87.2L77.7389 92.2831L86.1573 97.3662L84.8035 99.3477L75.3635 93.4646V91.1015ZM93.9814 83.0154H96.9845L96.6645 94.1538H94.326L93.9814 83.0154ZM95.5076 96.6031C95.8522 96.6031 96.1681 96.6892 96.4553 96.8615C96.7424 97.0256 96.9681 97.2513 97.1322 97.5385C97.2963 97.8174 97.3783 98.1251 97.3783 98.4615C97.3783 98.7979 97.2963 99.1097 97.1322 99.3969C96.9681 99.6841 96.7424 99.9097 96.4553 100.074C96.1681 100.246 95.8522 100.332 95.5076 100.332C95.1629 100.332 94.847 100.246 94.5599 100.074C94.2809 99.9097 94.0594 99.6841 93.8953 99.3969C93.7312 99.1097 93.6491 98.7979 93.6491 98.4615C93.6491 98.1251 93.7312 97.8174 93.8953 97.5385C94.0594 97.2513 94.2809 97.0256 94.5599 96.8615C94.847 96.6892 95.1629 96.6031 95.5076 96.6031ZM282.082 87.2369L283.362 85.2062L292.876 91.0892V93.4646L283.436 99.3477L282.082 97.4031L290.513 92.2831L282.082 87.2369ZM75.3635 131.102L84.8896 125.206L86.1573 127.2L77.7389 132.283L86.1573 137.366L84.8035 139.348L75.3635 133.465V131.102ZM149.192 127.237L150.472 125.206L159.985 131.089V133.465L150.545 139.348L149.192 137.403L157.622 132.283L149.192 127.237ZM75.3635 171.102L84.8896 165.206L86.1573 167.2L77.7389 172.283L86.1573 177.366L84.8035 179.348L75.3635 173.465V171.102ZM149.192 167.237L150.472 165.206L159.985 171.089V173.465L150.545 179.348L149.192 177.403L157.622 172.283L149.192 167.237ZM88.1845 218.634L97.206 200.012L99.3722 201.034L88.3199 223.889L86.1291 222.892L87.1506 220.788L75.3599 213.465V211.102L84.886 205.206L86.1537 207.2L77.7353 212.283L88.1845 218.634ZM163.957 207.237L165.237 205.206L174.751 211.089V213.465L165.311 219.348L163.957 217.403L172.388 212.283L163.957 207.237ZM75.3635 251.102L84.8896 245.206L86.1573 247.2L77.7389 252.283L86.1573 257.366L84.8035 259.348L75.3635 253.465V251.102ZM149.192 247.237L150.472 245.206L159.985 251.089V253.465L150.545 259.348L149.192 257.403L157.622 252.283L149.192 247.237ZM88.1845 298.634L97.206 280.012L99.3722 281.034L88.3199 303.889L86.1291 302.892L87.1506 300.788L75.3599 293.465V291.102L84.886 285.206L86.1537 287.2L77.7353 292.283L88.1845 298.634ZM163.957 287.237L165.237 285.206L174.751 291.089V293.465L165.311 299.348L163.957 297.403L172.388 292.283L163.957 287.237ZM88.1845 338.634L97.206 320.012L99.3722 321.034L88.3199 343.889L86.1291 342.892L87.1506 340.788L75.3599 333.465V331.102L84.886 325.206L86.1537 327.2L77.7353 332.283L88.1845 338.634ZM163.957 327.237L165.237 325.206L174.751 331.089V333.465L165.311 339.348L163.957 337.403L172.388 332.283L163.957 327.237Z" fill="#F9F9F9"/>
<path d="M116.71 91.4215C116.71 94.6215 115.963 96.8533 114.47 98.1169C112.977 99.3723 111.094 100 108.821 100H104.661V83.0154H108.538C110.097 83.0154 111.471 83.2451 112.661 83.7046C113.859 84.1559 114.831 85.001 115.578 86.24C116.333 87.479 116.71 89.2062 116.71 91.4215ZM113.707 91.4215C113.707 89.7313 113.49 88.4308 113.055 87.52C112.628 86.601 112.078 85.9856 111.405 85.6738C110.741 85.3621 109.965 85.2062 109.079 85.2062H107.516V97.8338H109.092C112.169 97.8338 113.707 95.6964 113.707 91.4215ZM131.513 91.5077C131.513 93.2718 131.267 94.8185 130.774 96.1477C130.282 97.4687 129.552 98.4985 128.583 99.2369C127.615 99.9672 126.438 100.332 125.051 100.332C123.656 100.332 122.475 99.9754 121.507 99.2615C120.538 98.5395 119.808 97.5221 119.316 96.2092C118.832 94.8882 118.59 93.3292 118.59 91.5323C118.59 89.7682 118.836 88.2215 119.328 86.8923C119.82 85.5549 120.551 84.5169 121.519 83.7785C122.487 83.04 123.664 82.6708 125.051 82.6708C126.446 82.6708 127.628 83.0318 128.596 83.7538C129.564 84.4759 130.29 85.5015 130.774 86.8308C131.267 88.1518 131.513 89.7108 131.513 91.5077ZM128.559 91.5077C128.559 89.2677 128.28 87.6062 127.722 86.5231C127.172 85.44 126.282 84.8985 125.051 84.8985C123.82 84.8985 122.926 85.4441 122.368 86.5354C121.818 87.6267 121.543 89.2923 121.543 91.5323C121.543 93.7559 121.822 95.4092 122.38 96.4923C122.947 97.5672 123.837 98.1046 125.051 98.1046C126.29 98.1046 127.184 97.5672 127.734 96.4923C128.284 95.4092 128.559 93.7477 128.559 91.5077ZM141.244 82.6708C142.352 82.6708 143.304 82.8144 144.1 83.1015C144.896 83.3805 145.651 83.8154 146.364 84.4062L144.875 86.1785C143.866 85.3415 142.701 84.9231 141.38 84.9231C140.485 84.9231 139.685 85.1446 138.98 85.5877C138.274 86.0308 137.712 86.7405 137.294 87.7169C136.883 88.6933 136.678 89.9487 136.678 91.4831C136.678 93.7149 137.105 95.3641 137.958 96.4308C138.812 97.4892 139.952 98.0185 141.38 98.0185C142.2 98.0185 142.906 97.8913 143.497 97.6369C144.088 97.3744 144.666 97.0133 145.232 96.5538L146.611 98.3138C145.987 98.9292 145.232 99.4215 144.346 99.7908C143.468 100.152 142.446 100.332 141.281 100.332C139.821 100.332 138.52 99.9918 137.38 99.3108C136.239 98.6215 135.341 97.6123 134.684 96.2831C134.036 94.9538 133.712 93.3538 133.712 91.4831C133.712 89.6369 134.044 88.0492 134.709 86.72C135.374 85.3908 136.276 84.3856 137.417 83.7046C138.565 83.0154 139.841 82.6708 141.244 82.6708ZM160.896 85.3169H155.973V100H153.118V85.3169H148.022V83.0154H161.192L160.896 85.3169ZM176.45 83.0154L170.788 93.5138V100H167.908V93.5385L162.246 83.0154H165.385L169.41 91.0646L173.459 83.0154H176.45ZM190.624 88.3446C190.624 90.2482 190.03 91.6595 188.84 92.5785C187.658 93.4892 186.042 93.9446 183.991 93.9446H181.935V100H179.08V83.0154H183.794C185.976 83.0154 187.658 83.4626 188.84 84.3569C190.03 85.2431 190.624 86.5723 190.624 88.3446ZM187.621 88.3692C187.621 86.2277 186.407 85.1569 183.978 85.1569H181.935V91.7662H184.015C185.164 91.7662 186.05 91.5036 186.674 90.9785C187.305 90.4533 187.621 89.5836 187.621 88.3692ZM204.172 85.1815H197.132V90.2892H203.285V92.4554H197.132V97.8338H204.627V100H194.276V83.0154H204.492L204.172 85.1815ZM93.0829 128.591C93.5999 127.959 94.207 127.479 94.9045 127.151C95.6101 126.823 96.3445 126.658 97.1076 126.658C98.3137 126.658 99.2204 126.995 99.8276 127.668C100.435 128.332 100.738 129.284 100.738 130.523V140H97.9814V130.954C97.9814 130.174 97.8337 129.616 97.5383 129.28C97.2512 128.935 96.7753 128.763 96.1106 128.763C95.5363 128.763 94.9824 128.948 94.4491 129.317C93.924 129.686 93.4686 130.15 93.0829 130.708V140H90.326V121.809L93.0829 121.514V128.591ZM115.947 139.311C115.463 139.623 114.884 139.869 114.212 140.049C113.547 140.238 112.862 140.332 112.156 140.332C111.163 140.332 110.322 140.156 109.633 139.803C108.944 139.45 108.423 138.954 108.07 138.314C107.717 137.674 107.541 136.923 107.541 136.062V129.009H104.649V127.003H107.541V124.098L110.298 123.766V127.003H114.679L114.372 129.009H110.298V136.037C110.298 136.743 110.474 137.264 110.827 137.6C111.18 137.936 111.75 138.105 112.538 138.105C113.408 138.105 114.212 137.899 114.95 137.489L115.947 139.311ZM128.817 126.658C129.63 126.658 130.265 126.937 130.725 127.495C131.184 128.045 131.414 128.993 131.414 130.338V140H128.965V130.72C128.965 130.219 128.944 129.842 128.903 129.588C128.871 129.325 128.789 129.132 128.657 129.009C128.534 128.878 128.345 128.812 128.091 128.812C127.394 128.812 126.754 129.239 126.171 130.092V140H123.943V130.72C123.943 130.219 123.923 129.842 123.882 129.588C123.849 129.325 123.767 129.132 123.636 129.009C123.513 128.878 123.324 128.812 123.07 128.812C122.725 128.812 122.397 128.915 122.085 129.12C121.773 129.317 121.461 129.641 121.15 130.092V140H118.688V127.003H120.768L120.953 128.406C121.363 127.832 121.781 127.397 122.208 127.102C122.643 126.806 123.152 126.658 123.734 126.658C124.891 126.658 125.634 127.212 125.962 128.32C126.356 127.787 126.782 127.376 127.242 127.089C127.701 126.802 128.227 126.658 128.817 126.658ZM140.334 136.455C140.334 137.03 140.506 137.448 140.851 137.711C141.203 137.973 141.688 138.105 142.303 138.105C142.959 138.105 143.644 137.961 144.358 137.674L145.06 139.594C144.092 140.086 142.976 140.332 141.712 140.332C140.851 140.332 140.108 140.168 139.484 139.84C138.861 139.504 138.385 139.028 138.057 138.412C137.737 137.789 137.577 137.054 137.577 136.209V123.815H133.651V121.785H140.334V136.455ZM93.0829 168.591C93.5999 167.959 94.207 167.479 94.9045 167.151C95.6101 166.823 96.3445 166.658 97.1076 166.658C98.3137 166.658 99.2204 166.995 99.8276 167.668C100.435 168.332 100.738 169.284 100.738 170.523V180H97.9814V170.954C97.9814 170.174 97.8337 169.616 97.5383 169.28C97.2512 168.935 96.7753 168.763 96.1106 168.763C95.5363 168.763 94.9824 168.948 94.4491 169.317C93.924 169.686 93.4686 170.15 93.0829 170.708V180H90.326V161.809L93.0829 161.514V168.591ZM107.381 174.388C107.455 175.659 107.812 176.611 108.452 177.243C109.1 177.875 109.924 178.191 110.925 178.191C111.541 178.191 112.119 178.096 112.661 177.908C113.202 177.719 113.76 177.436 114.335 177.058L115.529 178.708C114.913 179.216 114.195 179.614 113.375 179.902C112.554 180.189 111.693 180.332 110.79 180.332C109.469 180.332 108.337 180.049 107.393 179.483C106.45 178.909 105.736 178.109 105.252 177.083C104.768 176.057 104.525 174.868 104.525 173.514C104.525 172.209 104.763 171.04 105.239 170.006C105.723 168.964 106.413 168.148 107.307 167.557C108.201 166.958 109.252 166.658 110.458 166.658C111.598 166.658 112.587 166.921 113.424 167.446C114.269 167.963 114.917 168.71 115.369 169.686C115.828 170.663 116.058 171.819 116.058 173.157C116.058 173.608 116.037 174.018 115.996 174.388H107.381ZM110.482 168.702C109.588 168.702 108.866 169.022 108.316 169.662C107.767 170.293 107.451 171.241 107.369 172.505H113.387C113.362 171.282 113.1 170.343 112.599 169.686C112.099 169.03 111.393 168.702 110.482 168.702ZM129.79 176.812C129.79 177.313 129.863 177.682 130.011 177.92C130.167 178.158 130.421 178.334 130.774 178.449L130.159 180.32C129.494 180.246 128.936 180.066 128.485 179.778C128.034 179.491 127.693 179.073 127.463 178.523C126.996 179.114 126.401 179.565 125.679 179.877C124.957 180.181 124.169 180.332 123.316 180.332C122.446 180.332 121.687 180.164 121.039 179.828C120.399 179.491 119.907 179.019 119.562 178.412C119.217 177.805 119.045 177.099 119.045 176.295C119.045 174.925 119.578 173.871 120.645 173.132C121.72 172.394 123.246 172.025 125.223 172.025H127.082V171.175C127.082 170.355 126.836 169.756 126.343 169.378C125.851 169.001 125.133 168.812 124.19 168.812C123.738 168.812 123.209 168.87 122.602 168.985C121.995 169.099 121.371 169.268 120.731 169.489L120.054 167.545C120.842 167.249 121.625 167.028 122.405 166.88C123.184 166.732 123.919 166.658 124.608 166.658C126.323 166.658 127.615 167.036 128.485 167.791C129.355 168.546 129.79 169.621 129.79 171.015V176.812ZM124.153 178.302C124.719 178.302 125.264 178.154 125.79 177.858C126.323 177.555 126.754 177.141 127.082 176.615V173.748H125.556C124.3 173.748 123.381 173.957 122.799 174.375C122.224 174.786 121.937 175.385 121.937 176.172C121.937 176.87 122.122 177.399 122.491 177.76C122.869 178.121 123.422 178.302 124.153 178.302ZM142.254 161.477L145.011 161.785V180H142.586L142.389 178.4C141.946 179.024 141.413 179.504 140.789 179.84C140.174 180.168 139.489 180.332 138.734 180.332C137.117 180.332 135.899 179.725 135.078 178.511C134.258 177.288 133.848 175.618 133.848 173.502C133.848 172.181 134.053 171.003 134.463 169.969C134.873 168.935 135.464 168.127 136.235 167.545C137.015 166.954 137.93 166.658 138.98 166.658C140.309 166.658 141.4 167.13 142.254 168.074V161.477ZM139.706 168.775C138.754 168.775 138.024 169.165 137.515 169.945C137.015 170.724 136.764 171.91 136.764 173.502C136.764 176.644 137.663 178.215 139.46 178.215C140.535 178.215 141.466 177.6 142.254 176.369V170.215C141.925 169.748 141.548 169.391 141.121 169.145C140.695 168.898 140.223 168.775 139.706 168.775ZM107.849 208.591C108.365 207.959 108.973 207.479 109.67 207.151C110.376 206.823 111.11 206.658 111.873 206.658C113.079 206.658 113.986 206.995 114.593 207.668C115.2 208.332 115.504 209.284 115.504 210.523V220H112.747V210.954C112.747 210.174 112.599 209.616 112.304 209.28C112.017 208.935 111.541 208.763 110.876 208.763C110.302 208.763 109.748 208.948 109.215 209.317C108.69 209.686 108.234 210.15 107.849 210.708V220H105.092V201.809L107.849 201.514V208.591ZM122.147 214.388C122.22 215.659 122.577 216.611 123.217 217.243C123.865 217.875 124.69 218.191 125.691 218.191C126.307 218.191 126.885 218.096 127.427 217.908C127.968 217.719 128.526 217.436 129.1 217.058L130.294 218.708C129.679 219.216 128.961 219.614 128.14 219.902C127.32 220.189 126.458 220.332 125.556 220.332C124.235 220.332 123.102 220.049 122.159 219.483C121.215 218.909 120.501 218.109 120.017 217.083C119.533 216.057 119.291 214.868 119.291 213.514C119.291 212.209 119.529 211.04 120.005 210.006C120.489 208.964 121.178 208.148 122.073 207.557C122.967 206.958 124.017 206.658 125.223 206.658C126.364 206.658 127.353 206.921 128.19 207.446C129.035 207.963 129.683 208.71 130.134 209.686C130.594 210.663 130.823 211.819 130.823 213.157C130.823 213.608 130.803 214.018 130.762 214.388H122.147ZM125.248 208.702C124.354 208.702 123.632 209.022 123.082 209.662C122.532 210.293 122.216 211.241 122.134 212.505H128.153C128.128 211.282 127.865 210.343 127.365 209.686C126.864 209.03 126.159 208.702 125.248 208.702ZM144.555 216.812C144.555 217.313 144.629 217.682 144.777 217.92C144.933 218.158 145.187 218.334 145.54 218.449L144.924 220.32C144.26 220.246 143.702 220.066 143.251 219.778C142.799 219.491 142.459 219.073 142.229 218.523C141.761 219.114 141.166 219.565 140.444 219.877C139.722 220.181 138.935 220.332 138.081 220.332C137.212 220.332 136.453 220.164 135.804 219.828C135.164 219.491 134.672 219.019 134.328 218.412C133.983 217.805 133.811 217.099 133.811 216.295C133.811 214.925 134.344 213.871 135.411 213.132C136.485 212.394 138.012 212.025 139.989 212.025H141.848V211.175C141.848 210.355 141.601 209.756 141.109 209.378C140.617 209.001 139.899 208.812 138.955 208.812C138.504 208.812 137.975 208.87 137.368 208.985C136.76 209.099 136.137 209.268 135.497 209.489L134.82 207.545C135.608 207.249 136.391 207.028 137.171 206.88C137.95 206.732 138.684 206.658 139.374 206.658C141.089 206.658 142.381 207.036 143.251 207.791C144.12 208.546 144.555 209.621 144.555 211.015V216.812ZM138.918 218.302C139.484 218.302 140.03 218.154 140.555 217.858C141.089 217.555 141.519 217.141 141.848 216.615V213.748H140.321C139.066 213.748 138.147 213.957 137.564 214.375C136.99 214.786 136.703 215.385 136.703 216.172C136.703 216.87 136.888 217.399 137.257 217.76C137.634 218.121 138.188 218.302 138.918 218.302ZM157.019 201.477L159.776 201.785V220H157.352L157.155 218.4C156.712 219.024 156.178 219.504 155.555 219.84C154.939 220.168 154.254 220.332 153.499 220.332C151.883 220.332 150.664 219.725 149.844 218.511C149.023 217.288 148.613 215.618 148.613 213.502C148.613 212.181 148.818 211.003 149.229 209.969C149.639 208.935 150.23 208.127 151.001 207.545C151.78 206.954 152.695 206.658 153.745 206.658C155.075 206.658 156.166 207.13 157.019 208.074V201.477ZM154.472 208.775C153.52 208.775 152.79 209.165 152.281 209.945C151.78 210.724 151.53 211.91 151.53 213.502C151.53 216.644 152.429 218.215 154.225 218.215C155.3 218.215 156.232 217.6 157.019 216.369V210.215C156.691 209.748 156.314 209.391 155.887 209.145C155.46 208.898 154.989 208.775 154.472 208.775ZM93.0829 248.554C93.5424 247.947 94.0758 247.479 94.6829 247.151C95.2901 246.823 95.9465 246.658 96.6522 246.658C98.3014 246.658 99.5199 247.257 100.308 248.455C101.095 249.645 101.489 251.319 101.489 253.477C101.489 254.814 101.288 256 100.886 257.034C100.492 258.068 99.9055 258.876 99.126 259.458C98.3465 260.041 97.4112 260.332 96.3199 260.332C94.8676 260.332 93.727 259.795 92.8983 258.72L92.7506 260H90.326V241.785L93.0829 241.477V248.554ZM95.6306 258.228C96.5824 258.228 97.3086 257.838 97.8091 257.058C98.3178 256.279 98.5722 255.089 98.5722 253.489C98.5722 251.865 98.3465 250.675 97.8953 249.92C97.444 249.165 96.7794 248.788 95.9014 248.788C95.327 248.788 94.8019 248.96 94.326 249.305C93.8583 249.641 93.444 250.088 93.0829 250.646V256.726C93.3865 257.202 93.7558 257.571 94.1906 257.834C94.6337 258.096 95.1137 258.228 95.6306 258.228ZM110.298 246.658C111.545 246.658 112.608 246.937 113.485 247.495C114.363 248.053 115.028 248.845 115.479 249.871C115.931 250.888 116.156 252.09 116.156 253.477C116.156 254.855 115.927 256.062 115.467 257.095C115.008 258.121 114.339 258.917 113.461 259.483C112.583 260.049 111.524 260.332 110.285 260.332C109.038 260.332 107.976 260.057 107.098 259.508C106.22 258.958 105.551 258.17 105.092 257.145C104.64 256.119 104.415 254.905 104.415 253.502C104.415 252.148 104.644 250.954 105.104 249.92C105.563 248.886 106.232 248.086 107.11 247.52C107.996 246.946 109.059 246.658 110.298 246.658ZM110.298 248.8C109.297 248.8 108.546 249.186 108.045 249.957C107.553 250.72 107.307 251.902 107.307 253.502C107.307 255.102 107.553 256.287 108.045 257.058C108.538 257.822 109.284 258.203 110.285 258.203C111.287 258.203 112.033 257.822 112.525 257.058C113.018 256.287 113.264 255.093 113.264 253.477C113.264 251.885 113.018 250.708 112.525 249.945C112.033 249.182 111.291 248.8 110.298 248.8ZM127.488 241.477L130.245 241.785V260H127.82L127.623 258.4C127.18 259.024 126.647 259.504 126.023 259.84C125.408 260.168 124.723 260.332 123.968 260.332C122.352 260.332 121.133 259.725 120.313 258.511C119.492 257.288 119.082 255.618 119.082 253.502C119.082 252.181 119.287 251.003 119.697 249.969C120.108 248.935 120.698 248.127 121.47 247.545C122.249 246.954 123.164 246.658 124.214 246.658C125.543 246.658 126.635 247.13 127.488 248.074V241.477ZM124.94 248.775C123.989 248.775 123.258 249.165 122.75 249.945C122.249 250.724 121.999 251.91 121.999 253.502C121.999 256.644 122.897 258.215 124.694 258.215C125.769 258.215 126.7 257.6 127.488 256.369V250.215C127.16 249.748 126.782 249.391 126.356 249.145C125.929 248.898 125.457 248.775 124.94 248.775ZM141.515 260.049C140.982 261.633 140.219 262.868 139.226 263.754C138.241 264.648 136.883 265.169 135.152 265.317L134.795 263.249C135.657 263.118 136.346 262.917 136.863 262.646C137.388 262.384 137.802 262.043 138.106 261.625C138.418 261.214 138.701 260.673 138.955 260H138.02L133.638 247.003H136.568L139.841 258.08L143.164 247.003H145.995L141.515 260.049ZM107.849 288.554C108.308 287.947 108.841 287.479 109.449 287.151C110.056 286.823 110.712 286.658 111.418 286.658C113.067 286.658 114.285 287.257 115.073 288.455C115.861 289.645 116.255 291.319 116.255 293.477C116.255 294.814 116.054 296 115.652 297.034C115.258 298.068 114.671 298.876 113.892 299.458C113.112 300.041 112.177 300.332 111.085 300.332C109.633 300.332 108.493 299.795 107.664 298.72L107.516 300H105.092V281.785L107.849 281.477V288.554ZM110.396 298.228C111.348 298.228 112.074 297.838 112.575 297.058C113.083 296.279 113.338 295.089 113.338 293.489C113.338 291.865 113.112 290.675 112.661 289.92C112.21 289.165 111.545 288.788 110.667 288.788C110.093 288.788 109.568 288.96 109.092 289.305C108.624 289.641 108.21 290.088 107.849 290.646V296.726C108.152 297.202 108.521 297.571 108.956 297.834C109.399 298.096 109.879 298.228 110.396 298.228ZM125.063 286.658C126.311 286.658 127.373 286.937 128.251 287.495C129.129 288.053 129.794 288.845 130.245 289.871C130.696 290.888 130.922 292.09 130.922 293.477C130.922 294.855 130.692 296.062 130.233 297.095C129.773 298.121 129.104 298.917 128.227 299.483C127.349 300.049 126.29 300.332 125.051 300.332C123.804 300.332 122.741 300.057 121.863 299.508C120.985 298.958 120.317 298.17 119.857 297.145C119.406 296.119 119.18 294.905 119.18 293.502C119.18 292.148 119.41 290.954 119.87 289.92C120.329 288.886 120.998 288.086 121.876 287.52C122.762 286.946 123.824 286.658 125.063 286.658ZM125.063 288.8C124.062 288.8 123.312 289.186 122.811 289.957C122.319 290.72 122.073 291.902 122.073 293.502C122.073 295.102 122.319 296.287 122.811 297.058C123.303 297.822 124.05 298.203 125.051 298.203C126.052 298.203 126.799 297.822 127.291 297.058C127.783 296.287 128.03 295.093 128.03 293.477C128.03 291.885 127.783 290.708 127.291 289.945C126.799 289.182 126.056 288.8 125.063 288.8ZM142.254 281.477L145.011 281.785V300H142.586L142.389 298.4C141.946 299.024 141.413 299.504 140.789 299.84C140.174 300.168 139.489 300.332 138.734 300.332C137.117 300.332 135.899 299.725 135.078 298.511C134.258 297.288 133.848 295.618 133.848 293.502C133.848 292.181 134.053 291.003 134.463 289.969C134.873 288.935 135.464 288.127 136.235 287.545C137.015 286.954 137.93 286.658 138.98 286.658C140.309 286.658 141.4 287.13 142.254 288.074V281.477ZM139.706 288.775C138.754 288.775 138.024 289.165 137.515 289.945C137.015 290.724 136.764 291.91 136.764 293.502C136.764 296.644 137.663 298.215 139.46 298.215C140.535 298.215 141.466 297.6 142.254 296.369V290.215C141.925 289.748 141.548 289.391 141.121 289.145C140.695 288.898 140.223 288.775 139.706 288.775ZM156.281 300.049C155.747 301.633 154.984 302.868 153.992 303.754C153.007 304.648 151.649 305.169 149.918 305.317L149.561 303.249C150.422 303.118 151.112 302.917 151.629 302.646C152.154 302.384 152.568 302.043 152.872 301.625C153.183 301.214 153.466 300.673 153.721 300H152.785L148.404 287.003H151.333L154.607 298.08L157.93 287.003H160.761L156.281 300.049ZM107.849 328.591C108.365 327.959 108.973 327.479 109.67 327.151C110.376 326.823 111.11 326.658 111.873 326.658C113.079 326.658 113.986 326.995 114.593 327.668C115.2 328.332 115.504 329.284 115.504 330.523V340H112.747V330.954C112.747 330.174 112.599 329.616 112.304 329.28C112.017 328.935 111.541 328.763 110.876 328.763C110.302 328.763 109.748 328.948 109.215 329.317C108.69 329.686 108.234 330.15 107.849 330.708V340H105.092V321.809L107.849 321.514V328.591ZM130.713 339.311C130.229 339.623 129.65 339.869 128.977 340.049C128.313 340.238 127.628 340.332 126.922 340.332C125.929 340.332 125.088 340.156 124.399 339.803C123.71 339.45 123.189 338.954 122.836 338.314C122.483 337.674 122.307 336.923 122.307 336.062V329.009H119.414V327.003H122.307V324.098L125.063 323.766V327.003H129.445L129.137 329.009H125.063V336.037C125.063 336.743 125.24 337.264 125.593 337.6C125.945 337.936 126.516 338.105 127.303 338.105C128.173 338.105 128.977 337.899 129.716 337.489L130.713 339.311ZM143.583 326.658C144.395 326.658 145.031 326.937 145.491 327.495C145.95 328.045 146.18 328.993 146.18 330.338V340H143.731V330.72C143.731 330.219 143.71 329.842 143.669 329.588C143.636 329.325 143.554 329.132 143.423 329.009C143.3 328.878 143.111 328.812 142.857 328.812C142.159 328.812 141.519 329.239 140.937 330.092V340H138.709V330.72C138.709 330.219 138.689 329.842 138.648 329.588C138.615 329.325 138.533 329.132 138.401 329.009C138.278 328.878 138.09 328.812 137.835 328.812C137.491 328.812 137.162 328.915 136.851 329.12C136.539 329.317 136.227 329.641 135.915 330.092V340H133.454V327.003H135.534L135.718 328.406C136.129 327.832 136.547 327.397 136.974 327.102C137.409 326.806 137.917 326.658 138.5 326.658C139.657 326.658 140.399 327.212 140.728 328.32C141.121 327.787 141.548 327.376 142.008 327.089C142.467 326.802 142.992 326.658 143.583 326.658ZM155.099 336.455C155.099 337.03 155.272 337.448 155.616 337.711C155.969 337.973 156.453 338.105 157.069 338.105C157.725 338.105 158.41 337.961 159.124 337.674L159.825 339.594C158.857 340.086 157.741 340.332 156.478 340.332C155.616 340.332 154.874 340.168 154.25 339.84C153.626 339.504 153.151 339.028 152.822 338.412C152.502 337.789 152.342 337.054 152.342 336.209V323.815H148.416V321.785H155.099V336.455Z" fill="#FF79A6"/>
<path d="M225.974 88.5908C226.49 87.959 227.098 87.479 227.795 87.1508C228.501 86.8226 229.235 86.6585 229.998 86.6585C231.204 86.6585 232.111 86.9949 232.718 87.6677C233.325 88.3323 233.629 89.2841 233.629 90.5231V100H230.872V90.9538C230.872 90.1744 230.724 89.6164 230.429 89.28C230.142 88.9354 229.666 88.7631 229.001 88.7631C228.427 88.7631 227.873 88.9477 227.34 89.3169C226.815 89.6862 226.359 90.1497 225.974 90.7077V100H223.217V81.8092L225.974 81.5138V88.5908ZM248.838 99.3108C248.354 99.6226 247.775 99.8687 247.102 100.049C246.438 100.238 245.753 100.332 245.047 100.332C244.054 100.332 243.213 100.156 242.524 99.8031C241.835 99.4503 241.314 98.9538 240.961 98.3138C240.608 97.6738 240.432 96.9231 240.432 96.0615V89.0092H237.539V87.0031H240.432V84.0985L243.188 83.7662V87.0031H247.57L247.262 89.0092H243.188V96.0369C243.188 96.7426 243.365 97.2636 243.718 97.6C244.07 97.9364 244.641 98.1046 245.428 98.1046C246.298 98.1046 247.102 97.8995 247.841 97.4892L248.838 99.3108ZM261.708 86.6585C262.52 86.6585 263.156 86.9374 263.616 87.4954C264.075 88.0451 264.305 88.9928 264.305 90.3385V100H261.856V90.72C261.856 90.2195 261.835 89.8421 261.794 89.5877C261.761 89.3251 261.679 89.1323 261.548 89.0092C261.425 88.8779 261.236 88.8123 260.982 88.8123C260.284 88.8123 259.644 89.239 259.062 90.0923V100H256.834V90.72C256.834 90.2195 256.814 89.8421 256.773 89.5877C256.74 89.3251 256.658 89.1323 256.526 89.0092C256.403 88.8779 256.215 88.8123 255.96 88.8123C255.616 88.8123 255.287 88.9149 254.976 89.12C254.664 89.3169 254.352 89.641 254.04 90.0923V100H251.579V87.0031H253.659L253.843 88.4062C254.254 87.8318 254.672 87.3969 255.099 87.1015C255.534 86.8062 256.042 86.6585 256.625 86.6585C257.782 86.6585 258.524 87.2123 258.853 88.32C259.246 87.7867 259.673 87.3764 260.133 87.0892C260.592 86.8021 261.117 86.6585 261.708 86.6585ZM273.224 96.4554C273.224 97.0297 273.397 97.4482 273.741 97.7108C274.094 97.9733 274.578 98.1046 275.194 98.1046C275.85 98.1046 276.535 97.961 277.249 97.6738L277.95 99.5938C276.982 100.086 275.866 100.332 274.603 100.332C273.741 100.332 272.999 100.168 272.375 99.84C271.751 99.5036 271.276 99.0277 270.947 98.4123C270.627 97.7887 270.467 97.0544 270.467 96.2092V83.8154H266.541V81.7846H273.224V96.4554Z" fill="#27C93F"/>
</svg>
